<svg viewBox="-325 -15 700 355" xmlns="http://www.w3.org/2000/svg">
    <g>
        <rect fill="#99FF99" x="-325" y="-15" width="700" height="130"/>
        <rect fill="#FF9999" x="-325" y="115" width="700" height="75"/>
        <rect fill="#9999FF" x="-325" y="190" width="700" height="75"/>
        <rect fill="#FFFF99" x="-325" y="265" width="680" height="75"/>
        <rect fill="#999999" x="-325" y="340" width="300" height="75"/>
        <rect fill="#99EEEE" x="355" y="265" width="20" height="75"/>
        <rect fill="#99EEEE" x="-25" y="340" width="400" height="75"/>
        <rect fill="#EE99EE" x="-325" y="415" width="700" height="75"/>
    </g>
    
    <g transform="translate(0, 0)">
        <text text-anchor="middle">Proton <tspan fill="#EE4B2B">H⁺</tspan></text>
        <g transform="translate(0, 20)">
            <path fill="#EEEEEE" d="M -10 -18 L 10 -18 C 18 -18, 18 -18, 18 -10 L 18 10 C 18 18, 18 18, 10 18 L -10 18 C -18 18, -18, 18, -18 10 L -18 -10 C -18 -18, -18 -18, -10 -18" />
            <circle cx="0" cy="0" r="3" fill="#EE4B2B"/>
        </g>
    </g>
    <g transform="translate(150, 0)">
        <text text-anchor="middle">Neutron</text>
        <g transform="translate(0, 20)">
            <path fill="#EEEEEE" d="M -10 -18 L 10 -18 C 18 -18, 18 -18, 18 -10 L 18 10 C 18 18, 18 18, 10 18 L -10 18 C -18 18, -18, 18, -18 10 L -18 -10 C -18 -18, -18 -18, -10 -18" />
            <circle cx="0" cy="0" r="3" fill="#AAAAAA"/>
        </g>
    </g>
    <g transform="translate(75, 75)">
        <text text-anchor="middle">Atomkern</text>
        <g transform="translate(0, 20)">
            <path fill="#EEEEEE" d="M -10 -18 L 10 -18 C 18 -18, 18 -18, 18 -10 L 18 10 C 18 18, 18 18, 10 18 L -10 18 C -18 18, -18, 18, -18 10 L -18 -10 C -18 -18, -18 -18, -10 -18" />
            <circle cx="-2.5" cy="0" r="3" fill="#EE4B2B"/>
            <circle cx="2.5" cy="0" r="3" fill="#AAAAAA"/>
        </g>
    </g>
    <g transform="translate(-75, 75)">
        <text text-anchor="middle">Elektron <tspan fill="#89CFFF">e⁻</tspan></text>
        <g transform="translate(0, 20)">
            <path fill="#EEEEEE" d="M -10 -18 L 10 -18 C 18 -18, 18 -18, 18 -10 L 18 10 C 18 18, 18 18, 10 18 L -10 18 C -18 18, -18, 18, -18 10 L -18 -10 C -18 -18, -18 -18, -10 -18" />
            <circle cx="0" cy="0" r="1.5" fill="#89CFFF"/>
        </g>
    </g>
    <g transform="translate(-300, 150)">
        <text text-anchor="middle"><tspan fill="#89CFFF">Anion</tspan></text>
        <g transform="translate(0, 20)">
            <path fill="#EEEEEE" d="M -10 -18 L 10 -18 C 18 -18, 18 -18, 18 -10 L 18 10 C 18 18, 18 18, 10 18 L -10 18 C -18 18, -18, 18, -18 10 L -18 -10 C -18 -18, -18 -18, -10 -18" />
            <circle cx="0" cy="0" r="3" fill="#EE4B2B"/>
            <circle cx="0" cy="0" r="12" fill="none" stroke="#AAAAAA" stroke-width="0.75"/>
            <circle cx="-12" cy="0" r="1.5" fill="#89CFFF"/>
            <circle cx="12" cy="0" r="1.5" fill="#89CFFF"/>
            <text x="12" y="-5" text-anchor="middle" fill="#89CFFF">⁻</text>
        </g>
    </g>
    <g transform="translate(-150, 150)">
        <text text-anchor="middle"><tspan fill="#EE4B2B">Kation</tspan></text>
        <g transform="translate(0, 20)">
            <path fill="#EEEEEE" d="M -10 -18 L 10 -18 C 18 -18, 18 -18, 18 -10 L 18 10 C 18 18, 18 18, 10 18 L -10 18 C -18 18, -18, 18, -18 10 L -18 -10 C -18 -18, -18 -18, -10 -18" />
            <circle cx="0" cy="0" r="3" fill="#EE4B2B"/>
            <circle cx="0" cy="0" r="12" fill="none" stroke="#AAAAAA" stroke-width="0.75"/>
            <text x="12" y="-5" text-anchor="middle" fill="#EE4B2B">⁺</text>
        </g>
    </g>
    <g transform="translate(0, 150)">
        <text text-anchor="middle">Atom</text>
        <g transform="translate(0, 20)">
            <path fill="#EEEEEE" d="M -10 -18 L 10 -18 C 18 -18, 18 -18, 18 -10 L 18 10 C 18 18, 18 18, 10 18 L -10 18 C -18 18, -18, 18, -18 10 L -18 -10 C -18 -18, -18 -18, -10 -18" />
            <circle cx="0" cy="0" r="3" fill="#EE4B2B"/>
            <circle cx="0" cy="0" r="12" fill="none" stroke="#AAAAAA" stroke-width="0.75"/>
            <circle cx="12" cy="0" r="1.5" fill="#89CFFF"/>
        </g>
    </g>
    <g transform="translate(150, 150)">
        <text text-anchor="middle">Isotop</text>
        <g transform="translate(0, 20)">
            <path fill="#EEEEEE" d="M -10 -18 L 10 -18 C 18 -18, 18 -18, 18 -10 L 18 10 C 18 18, 18 18, 10 18 L -10 18 C -18 18, -18, 18, -18 10 L -18 -10 C -18 -18, -18 -18, -10 -18" />
            <circle cx="-1.5" cy="1.5" r="3" fill="#999999"/>
            <circle cx="0" cy="-1.5" r="3" fill="#EE4B2B"/>
            <circle cx="1.5" cy="1.5" r="3" fill="#AAAAAA"/>
            <circle cx="0" cy="0" r="12" fill="none" stroke="#AAAAAA" stroke-width="0.75"/>
            <circle cx="12" cy="0" r="1.5" fill="#89CFFF"/>
        </g>
    </g>
    <g transform="translate(-225, 225)">
        <text text-anchor="middle">Ionenbindung</text>
        <g transform="translate(0, 20)">
            <path fill="#EEEEEE" d="M -10 -18 L 10 -18 C 18 -18, 18 -18, 18 -10 L 18 10 C 18 18, 18 18, 10 18 L -10 18 C -18 18, -18, 18, -18 10 L -18 -10 C -18 -18, -18 -18, -10 -18" />
            <circle cx="-12" cy="-12" r="3" fill="#89CFFF"/>
            <circle cx="-6" cy="-12" r="1.5" fill="#EE4B2B"/>
            <circle cx="-0" cy="-12" r="3" fill="#89CFFF"/>
            <circle cx="6" cy="-12" r="1.5" fill="#EE4B2B"/>
            <circle cx="12" cy="-12" r="3" fill="#89CFFF"/>

            <circle cx="-12" cy="-6" r="1.5" fill="#EE4B2B"/>
            <circle cx="-6" cy="-6" r="3" fill="#89CFFF"/>
            <circle cx="-0" cy="-6" r="1.5" fill="#EE4B2B"/>
            <circle cx="6" cy="-6" r="3" fill="#89CFFF"/>
            <circle cx="12" cy="-6" r="1.5" fill="#EE4B2B"/>

            <circle cx="-12" cy="0" r="3" fill="#89CFFF"/>
            <circle cx="-6" cy="0" r="1.5" fill="#EE4B2B"/>
            <circle cx="-0" cy="0" r="3" fill="#89CFFF"/>
            <circle cx="6" cy="0" r="1.5" fill="#EE4B2B"/>
            <circle cx="12" cy="0" r="3" fill="#89CFFF"/>

            <circle cx="-12" cy="6" r="1.5" fill="#EE4B2B"/>
            <circle cx="-6" cy="6" r="3" fill="#89CFFF"/>
            <circle cx="-0" cy="6" r="1.5" fill="#EE4B2B"/>
            <circle cx="6" cy="6" r="3" fill="#89CFFF"/>
            <circle cx="12" cy="6" r="1.5" fill="#EE4B2B"/>

            <circle cx="-12" cy="12" r="3" fill="#89CFFF"/>
            <circle cx="-6" cy="12" r="1.5" fill="#EE4B2B"/>
            <circle cx="-0" cy="12" r="3" fill="#89CFFF"/>
            <circle cx="6" cy="12" r="1.5" fill="#EE4B2B"/>
            <circle cx="12" cy="12" r="3" fill="#89CFFF"/>
        </g>
    </g>
    <g transform="translate(0, 225)">
        <text text-anchor="middle">polare Atombindung</text>
        <g transform="translate(0, 20)">
            <path fill="#EEEEEE" d="M -10 -18 L 10 -18 C 18 -18, 18 -18, 18 -10 L 18 10 C 18 18, 18 18, 10 18 L -10 18 C -18 18, -18, 18, -18 10 L -18 -10 C -18 -18, -18 -18, -10 -18" />
            <circle cx="-7.5" cy="0" r="3" fill="#EE4B2B"/>
            <circle cx="7.5" cy="0" r="3" fill="#EE4B2B"/>
            <circle cx="-7.5" cy="0" r="9" fill="none" stroke="#AAAAAA" stroke-width="0.75"/>
            <circle cx="7.5" cy="0" r="9" fill="none" stroke="#AAAAAA" stroke-width="0.75"/>
            <circle cx="-1.75" cy="-2" r="1.5" fill="#89CFFF"/>
            <circle cx="-1.75" cy="2" r="1.5" fill="#89CFFF"/>
            <text x="-7.5" y="-5" text-anchor="middle" font-size="10" fill="#89CFFF">δ⁻</text>
            <text x="7.5" y="-5" text-anchor="middle" font-size="10" fill="#EE4B2B">δ⁺</text>
        </g>
    </g>
    <g transform="translate(150, 225)">
        <text text-anchor="middle">Atombindung</text>
        <g transform="translate(0, 20)">
            <path fill="#EEEEEE" d="M -10 -18 L 10 -18 C 18 -18, 18 -18, 18 -10 L 18 10 C 18 18, 18 18, 10 18 L -10 18 C -18 18, -18, 18, -18 10 L -18 -10 C -18 -18, -18 -18, -10 -18" />
            <circle cx="-7.5" cy="0" r="3" fill="#EE4B2B"/>
            <circle cx="7.5" cy="0" r="3" fill="#EE4B2B"/>
            <circle cx="-7.5" cy="0" r="9" fill="none" stroke="#AAAAAA" stroke-width="0.75"/>
            <circle cx="7.5" cy="0" r="9" fill="none" stroke="#AAAAAA" stroke-width="0.75"/>
            <circle cx="0" cy="-4" r="1.5" fill="#89CFFF"/>
            <circle cx="0" cy="4" r="1.5" fill="#89CFFF"/>
        </g>
    </g>
    <g transform="translate(300, 225)">
        <text text-anchor="middle">Metallbindung</text>
        <g transform="translate(0, 20)">
            <path fill="#EEEEEE" d="M -10 -18 L 10 -18 C 18 -18, 18 -18, 18 -10 L 18 10 C 18 18, 18 18, 10 18 L -10 18 C -18 18, -18, 18, -18 10 L -18 -10 C -18 -18, -18 -18, -10 -18" />
            <circle cx="-12" cy="-12" r="2" fill="#EE4B2B"/>
            <circle cx="-6" cy="-12" r="2" fill="#EE4B2B"/>
            <circle cx="-0" cy="-12" r="2" fill="#EE4B2B"/>
            <circle cx="6" cy="-12" r="2" fill="#EE4B2B"/>
            <circle cx="12" cy="-12" r="2" fill="#EE4B2B"/>

            <circle cx="-12" cy="-6" r="2" fill="#EE4B2B"/>
            <circle cx="-6" cy="-6" r="2" fill="#EE4B2B"/>
            <circle cx="-0" cy="-6" r="2" fill="#EE4B2B"/>
            <circle cx="6" cy="-6" r="2" fill="#EE4B2B"/>
            <circle cx="12" cy="-6" r="2" fill="#EE4B2B"/>

            <circle cx="-12" cy="0" r="2" fill="#EE4B2B"/>
            <circle cx="-6" cy="0" r="2" fill="#EE4B2B"/>
            <circle cx="-0" cy="0" r="2" fill="#EE4B2B"/>
            <circle cx="6" cy="0" r="2" fill="#EE4B2B"/>
            <circle cx="12" cy="0" r="2" fill="#EE4B2B"/>

            <circle cx="-12" cy="6" r="2" fill="#EE4B2B"/>
            <circle cx="-6" cy="6" r="2" fill="#EE4B2B"/>
            <circle cx="-0" cy="6" r="2" fill="#EE4B2B"/>
            <circle cx="6" cy="6" r="2" fill="#EE4B2B"/>
            <circle cx="12" cy="6" r="2" fill="#EE4B2B"/>

            <circle cx="-12" cy="12" r="2" fill="#EE4B2B"/>
            <circle cx="-6" cy="12" r="2" fill="#EE4B2B"/>
            <circle cx="-0" cy="12" r="2" fill="#EE4B2B"/>
            <circle cx="6" cy="12" r="2" fill="#EE4B2B"/>
            <circle cx="12" cy="12" r="2" fill="#EE4B2B"/>

            <circle cx="-7" cy="9" r="1.5" fill="#89CFFF"/>
            <circle cx="-13" cy="7" r="1.5" fill="#89CFFF"/>
            <circle cx="3" cy="5" r="1.5" fill="#89CFFF"/>
            <circle cx="9" cy="10" r="1.5" fill="#89CFFF"/>
            <circle cx="3" cy="13" r="1.5" fill="#89CFFF"/>
            <circle cx="-11" cy="-3" r="1.5" fill="#89CFFF"/>
            <circle cx="-13" cy="-10" r="1.5" fill="#89CFFF"/>
            <circle cx="-4" cy="-9" r="1.5" fill="#89CFFF"/>
            <circle cx="4" cy="-11" r="1.5" fill="#89CFFF"/>
            <circle cx="12" cy="-9" r="1.5" fill="#89CFFF"/>
            <circle cx="3" cy="-3" r="1.5" fill="#89CFFF"/>
            <circle cx="11" cy="3" r="1.5" fill="#89CFFF"/>
        </g>
    </g>
    <g transform="translate(-150, 300)">
        <text text-anchor="middle">Wasserstoff-Brücke</text>
        <g transform="translate(0, 20)">
            <path fill="#EEEEEE" d="M -10 -18 L 10 -18 C 18 -18, 18 -18, 18 -10 L 18 10 C 18 18, 18 18, 10 18 L -10 18 C -18 18, -18, 18, -18 10 L -18 -10 C -18 -18, -18 -18, -10 -18" />
            <g transform="translate(0, -9)">
                <text x="-12" y="3.5" text-anchor="middle" font-size="10" fill="#89CFFF">δ⁻</text>
                <text x="12" y="3.5" text-anchor="middle" font-size="10" fill="#EE4B2B">δ⁺</text>
            </g>
            <g transform="translate(0, 0)">
                <text x="-12" y="3.5" text-anchor="middle" font-size="10" fill="#89CFFF">O</text>
                <text x="12" y="3.5" text-anchor="middle" font-size="10" fill="#EE4B2B">H</text>
                <path fill="none" stroke="#000000" d="M -5 0 L 5 0"  stroke-dasharray="1 2"/>
            </g>
        </g>
    </g>
    <g transform="translate(0, 300)">
        <text text-anchor="middle">Dipol-Dipol</text>
        <g transform="translate(0, 20)">
            <path fill="#EEEEEE" d="M -10 -18 L 10 -18 C 18 -18, 18 -18, 18 -10 L 18 10 C 18 18, 18 18, 10 18 L -10 18 C -18 18, -18, 18, -18 10 L -18 -10 C -18 -18, -18 -18, -10 -18" />
            <text x="-12" y="3.5" text-anchor="middle" font-size="10" fill="#89CFFF">δ⁻</text>
            <text x="12" y="3.5" text-anchor="middle" font-size="10" fill="#EE4B2B">δ⁺</text>
            <path fill="none" stroke="#000000" d="M -5 0 L 5 0"  stroke-dasharray="1 2"/>
        </g>
    </g>
    <g transform="translate(150, 300)">
        <text text-anchor="middle">Van-der-Waal</text>
        <g transform="translate(0, 20)">
            <path fill="#EEEEEE" d="M -10 -18 L 10 -18 C 18 -18, 18 -18, 18 -10 L 18 10 C 18 18, 18 18, 10 18 L -10 18 C -18 18, -18, 18, -18 10 L -18 -10 C -18 -18, -18 -18, -10 -18" />
            <g transform="translate(0, -10)">
                <mask id="van-der-wall-1">
                    <rect x="-12.5" y="-6" width="25" height="12" fill="#FFFFFF" />
                </mask>
                <g mask="url(#van-der-wall-1)">
                    <circle cx="-7.5" cy="0" r="3" fill="#EE4B2B"/>
                    <circle cx="7.5" cy="0" r="3" fill="#EE4B2B"/>
                    <circle cx="-7.5" cy="0" r="9" fill="none" stroke="#AAAAAA" stroke-width="0.75"/>
                    <circle cx="7.5" cy="0" r="9" fill="none" stroke="#AAAAAA" stroke-width="0.75"/>
                    <circle cx="0" cy="-4" r="1.5" fill="#89CFFF"/>
                    <circle cx="0" cy="4" r="1.5" fill="#89CFFF"/>
                </g>
            </g>
            <g transform="translate(0, 10)">
                <mask id="van-der-wall-2">
                    <rect x="-12.5" y="-6" width="25" height="12" fill="#FFFFFF" />
                </mask>
                <g mask="url(#van-der-wall-2)">
                    <circle cx="-7.5" cy="0" r="3" fill="#EE4B2B"/>
                    <circle cx="7.5" cy="0" r="3" fill="#EE4B2B"/>
                    <circle cx="-7.5" cy="0" r="9" fill="none" stroke="#AAAAAA" stroke-width="0.75"/>
                    <circle cx="7.5" cy="0" r="9" fill="none" stroke="#AAAAAA" stroke-width="0.75"/>
                    <circle cx="-1.75" cy="-2" r="1.5" fill="#89CFFF"/>
                    <circle cx="-1.75" cy="2" r="1.5" fill="#89CFFF"/>
                </g>
                <text x="-14" y="3.5" text-anchor="middle" font-size="10" fill="#89CFFF">δ⁻</text>
                <text x="14" y="3.5" text-anchor="middle" font-size="10" fill="#EE4B2B">δ⁺</text>
            </g>
            <text x="0" y="3.5" text-anchor="middle" font-size="9">⇅</text>
        </g>
    </g>
    <g transform="translate(-225, 375)">
        <text text-anchor="middle">Kohäsion</text>
        <g transform="translate(0, 20)">
            <path fill="#EEEEEE" d="M -10 -18 L 10 -18 C 18 -18, 18 -18, 18 -10 L 18 10 C 18 18, 18 18, 10 18 L -10 18 C -18 18, -18, 18, -18 10 L -18 -10 C -18 -18, -18 -18, -10 -18" />
            <circle cx="-12" cy="0" r="2" fill="#333333"/>
            <circle cx="12" cy="0" r="2" fill="#333333"/>
            <text x="0" y="5" fill="#000000" text-anchor="middle">↔</text>
        </g>
    </g>
    <g transform="translate(-75, 375)">
        <text text-anchor="middle">Adhäsion</text>
        <g transform="translate(0, 20)">
            <path fill="#EEEEEE" d="M -10 -18 L 10 -18 C 18 -18, 18 -18, 18 -10 L 18 10 C 18 18, 18 18, 10 18 L -10 18 C -18 18, -18, 18, -18 10 L -18 -10 C -18 -18, -18 -18, -10 -18" />
            <circle cx="-12" cy="0" r="2" fill="#333333"/>
            <circle cx="12" cy="0" r="2" fill="#AAAAAA"/>
            <text x="0" y="5" fill="#000000" text-anchor="middle">↔</text>
        </g>
    </g>
    <g transform="translate(0, 375)">
        <text text-anchor="middle">Gas</text>
        <g transform="translate(0, 20)" fill="#AAAAFF">
            <path fill="#EEEEEE" d="M -10 -18 L 10 -18 C 18 -18, 18 -18, 18 -10 L 18 10 C 18 18, 18 18, 10 18 L -10 18 C -18 18, -18, 18, -18 10 L -18 -10 C -18 -18, -18 -18, -10 -18" />
            <circle cx="-12" cy="-12" r="2"/>
            <circle cx="11" cy="-9" r="2"/>

            <circle cx="0" cy="-7" r="2"/>

            <circle cx="6" cy="3" r="2"/>


            <circle cx="-7" cy="10" r="2"/>
            <circle cx="11" cy="12" r="2"/>
        </g>
    </g>
    <g transform="translate(150, 375)">
        <text text-anchor="middle">Flüssig</text>
        <g transform="translate(0, 20)" fill="#5555DD">
            <path fill="#EEEEEE" d="M -10 -18 L 10 -18 C 18 -18, 18 -18, 18 -10 L 18 10 C 18 18, 18 18, 10 18 L -10 18 C -18 18, -18, 18, -18 10 L -18 -10 C -18 -18, -18 -18, -10 -18" />
            <circle cx="-12" cy="-5" r="2"/>
            <circle cx="-6" cy="-6" r="2"/>

            <circle cx="-10" cy="1" r="2"/>
            <circle cx="-2" cy="0" r="2"/>
            <circle cx="5" cy="0" r="2"/>

            <circle cx="-12" cy="6" r="2"/>
            <circle cx="-3" cy="7" r="2"/>
            <circle cx="1" cy="4" r="2"/>
            <circle cx="12" cy="7" r="2"/>

            <circle cx="-12" cy="11" r="2"/>
    
            <circle cx="-1" cy="12" r="2"/>
            <circle cx="5" cy="11" r="2"/>
            <circle cx="12" cy="12" r="2"/>
        </g>
    </g>
    <g transform="translate(300, 375)">
        <text text-anchor="middle">Fest</text>
        <g transform="translate(0, 20)" fill="#883333">
            <path fill="#EEEEEE" d="M -10 -18 L 10 -18 C 18 -18, 18 -18, 18 -10 L 18 10 C 18 18, 18 18, 10 18 L -10 18 C -18 18, -18, 18, -18 10 L -18 -10 C -18 -18, -18 -18, -10 -18" />
            <circle cx="-12" cy="-12" r="2"/>
            <circle cx="-6" cy="-12" r="2"/>
            <circle cx="-0" cy="-12" r="2"/>
            <circle cx="6" cy="-12" r="2"/>
            <circle cx="12" cy="-12" r="2"/>

            <circle cx="-12" cy="-6" r="2"/>
            <circle cx="-6" cy="-6" r="2"/>
            <circle cx="-0" cy="-6" r="2"/>
            <circle cx="6" cy="-6" r="2"/>
            <circle cx="12" cy="-6" r="2"/>

            <circle cx="-12" cy="0" r="2"/>
            <circle cx="-6" cy="0" r="2"/>
            <circle cx="-0" cy="0" r="2"/>
            <circle cx="6" cy="0" r="2"/>
            <circle cx="12" cy="0" r="2"/>

            <circle cx="-12" cy="6" r="2"/>
            <circle cx="-6" cy="6" r="2"/>
            <circle cx="-0" cy="6" r="2"/>
            <circle cx="6" cy="6" r="2"/>
            <circle cx="12" cy="6" r="2"/>

            <circle cx="-12" cy="12" r="2"/>
            <circle cx="-6" cy="12" r="2"/>
            <circle cx="-0" cy="12" r="2"/>
            <circle cx="6" cy="12" r="2"/>
            <circle cx="12" cy="12" r="2"/>
        </g>
    </g>
    <g transform="translate(0, 450)">
        <text text-anchor="middle">Aerosol</text>
        <g transform="translate(0, 20)" fill="#AAAAFF">
            <path fill="#EEEEEE" d="M -10 -18 L 10 -18 C 18 -18, 18 -18, 18 -10 L 18 10 C 18 18, 18 18, 10 18 L -10 18 C -18 18, -18, 18, -18 10 L -18 -10 C -18 -18, -18 -18, -10 -18" />
            <circle cx="-12" cy="-12" r="2"/>
            <circle cx="11" cy="-9" r="2"/>

            <circle cx="0" cy="-7" r="2" fill="#5555DD"/>

            <circle cx="6" cy="3" r="2"/>


            <circle cx="-7" cy="10" r="2" fill="#883333"/>
            <circle cx="11" cy="12" r="2"/>
        </g>
    </g>
    <g transform="translate(150, 450)">
        <text text-anchor="middle">Emulsion</text>
        <g transform="translate(0, 20)" fill="#5555DD">
            <path fill="#EEEEEE" d="M -10 -18 L 10 -18 C 18 -18, 18 -18, 18 -10 L 18 10 C 18 18, 18 18, 10 18 L -10 18 C -18 18, -18, 18, -18 10 L -18 -10 C -18 -18, -18 -18, -10 -18" />
            <circle cx="-12" cy="-5" r="2"/>
            <circle cx="-6" cy="-6" r="2" fill="#111188"/>

            <circle cx="-10" cy="1" r="2"/>
            <circle cx="-2" cy="0" r="2"/>
            <circle cx="5" cy="0" r="2"/>

            <circle cx="-12" cy="6" r="2" fill="#111188"/>
            <circle cx="-3" cy="7" r="2"/>
            <circle cx="1" cy="4" r="2"/>
            <circle cx="12" cy="7" r="2" fill="#111188"/>

            <circle cx="-12" cy="11" r="2"/>
    
            <circle cx="-1" cy="12" r="2"/>
            <circle cx="5" cy="11" r="2" fill="#111188"/>
            <circle cx="12" cy="12" r="2"/>
        </g>
    </g>
    <g transform="translate(300, 450)">
        <text text-anchor="middle">Suspension</text>
        <g transform="translate(0, 20)" fill="#5555DD">
            <path fill="#EEEEEE" d="M -10 -18 L 10 -18 C 18 -18, 18 -18, 18 -10 L 18 10 C 18 18, 18 18, 10 18 L -10 18 C -18 18, -18, 18, -18 10 L -18 -10 C -18 -18, -18 -18, -10 -18" />
            <circle cx="-12" cy="-5" r="2"/>
            <circle cx="-6" cy="-6" r="2"/>

            <circle cx="-10" cy="1" r="2" fill="#883333"/>
            <circle cx="-2" cy="0" r="2"/>
            <circle cx="5" cy="0" r="2"/>

            <circle cx="-12" cy="6" r="2"/>
            <circle cx="-3" cy="7" r="2"/>
            <circle cx="1" cy="4" r="2" fill="#883333"/>
            <circle cx="12" cy="7" r="2"/>

            <circle cx="-12" cy="11" r="2"/>
    
            <circle cx="-1" cy="12" r="2"/>
            <circle cx="5" cy="11" r="2" fill="#883333"/>
            <circle cx="12" cy="12" r="2"/>
        </g>
    </g>
    
    <g transform="translate(0, -5)">
        <!-- Proton & Neutron -->
        <path fill="none" stroke="#000000" d="M 50 25 L 70 25 L 75 35 L 80 25 L 100 25" />
        
        <!-- Elektron & Atomkern -->
        <path fill="none" stroke="#000000" d="M -25 100 L -5 100 L 0 110 L 5 100 L 25 100" />
        
        <!-- Kation Anion -->
        <path fill="none" stroke="#000000" d="M -25 150 L -120 150 L -120 132.5 L -300 132.5" stroke-dasharray="3 2"/>
        <path fill="none" stroke="#000000" d="M-300 132.5 L -300 140" stroke-dasharray="3 2"/>
        <path fill="none" stroke="#000000" d="M -150 132.5 L -150 140" stroke-dasharray="3 2"/> 
        <path fill="none" stroke="#000000" d="M -303 137 L -300 140 L -297 137"/>
        <path fill="none" stroke="#000000" d="M -153 137 L -150 140 L -147 137"/>

        <!-- Kation & Anion -->
        <path fill="none" stroke="#000000" d="M -250 175 L -230 175 L -225 185 L -220 175 L -200 175" />

        <!-- Isotop -->
        <path fill="none" stroke="#000000" d="M 25 175 L 125 175" stroke-dasharray="3 2"/>
        <path fill="none" stroke="#000000" d="M 122 172 L 125 175 L 122 178"/>
        
        <!-- Atombindung Metallbindung -->
        <path fill="none" stroke="#000000" d="M 0 200 L 0 215" />
        <path fill="none" stroke="#000000" d="M 0 207.5 L 150 207.5 L 150 215" />
        <path fill="none" stroke="#000000" d="M 150 207.5 L 300 207.5 L 300 215" />

        <!-- Elektronen Abgabe -->
        <text x="-225" y="130" text-anchor="middle" font-size="9">Elektronen Abgabe</text>
        
        <!-- Elektronen Teilen -->
        <text x="150" y="205" text-anchor="middle" font-size="9">Elektronen Teilen</text>
        
        <!-- Molekül -->
        <text x="75" y="247.5" text-anchor="middle" font-size="9">Molekül</text>
        <path fill="none" stroke="#000000" d="M 25 250 L 125 250"  stroke-dasharray="3 2"/>

        <!-- Wasserstoff-Brücke -->
        <path fill="none" stroke="#000000" d="M -125 325 L -25 325"  stroke-dasharray="3 2"/>
        <path fill="none" stroke="#000000" d="M -122 322 L -125 325 L -122 328"/>

        <!-- Kohäsion Adhäsion -->
        <path fill="none" stroke="#000000" d="M -225 345 L -225 365"/>
        <path fill="none" stroke="#000000" d="M -225 357.5 L -75 357.5 L -75 365"/>

        <!-- Dipol-Dipol -->
        <path fill="none" stroke="#000000" d="M 0 290 L 0 275" />

        <!-- Van-der-Waal -->
        <path fill="none" stroke="#000000" d="M 150 290 L 150 275" />

        <!-- Gas Flüssig Fest -->
        <path fill="none" stroke="#000000" d="M 365 270 L 365 357.5 L 300 357.5 L 300 365" />
        <path fill="none" stroke="#000000" d="M 300 357.5 L 150 357.5 L 150 365" />
        <path fill="none" stroke="#000000" d="M 150 357.5 L 0 357.5 L 0 365" />
        <text x="150" y="355" text-anchor="middle" font-size="9">Temperatur &amp; Druck</text>

        <!-- Aerosol Emulsion Suspension -->
        <path fill="none" stroke="#000000" d="M 0 425 L 0 440" />
        <path fill="none" stroke="#000000" d="M 150 425 L 150 440" />
        <path fill="none" stroke="#000000" d="M 300 425 L 300 440" />
        <path fill="none" stroke="#000000" d="M -75 425 L -75 432.5 L 300 432.5" />
    </g>
</svg>
