<svg viewBox="-200 0 600 100" xmlns="http://www.w3.org/2000/svg">
    <g transform="translate(0, 0)">
        <text text-anchor="middle">Proton <tspan fill="#EE4B2B">H⁺</tspan></text>
        <g transform="translate(0, 20)">
            <path fill="#F6F6F6" d="M -10 -18 L 10 -18 C 18 -18, 18 -18, 18 -10 L 18 10 C 18 18, 18 18, 10 18 L -10 18 C -18 18, -18, 18, -18 10 L -18 -10 C -18 -18, -18 -18, -10 -18" />
            <circle cx="0" cy="0" r="3" fill="#EE4B2B"/>
        </g>
    </g>
    <g transform="translate(150, 0)">
        <text text-anchor="middle">Neutron</text>
        <g transform="translate(0, 20)">
            <path fill="#F6F6F6" d="M -10 -18 L 10 -18 C 18 -18, 18 -18, 18 -10 L 18 10 C 18 18, 18 18, 10 18 L -10 18 C -18 18, -18, 18, -18 10 L -18 -10 C -18 -18, -18 -18, -10 -18" />
            <circle cx="0" cy="0" r="3" fill="#DDDDDD"/>
        </g>
    </g>
    <g transform="translate(75, 75)">
        <text text-anchor="middle">Atomkern</text>
        <g transform="translate(0, 20)">
            <path fill="#F6F6F6" d="M -10 -18 L 10 -18 C 18 -18, 18 -18, 18 -10 L 18 10 C 18 18, 18 18, 10 18 L -10 18 C -18 18, -18, 18, -18 10 L -18 -10 C -18 -18, -18 -18, -10 -18" />
            <circle cx="-2.5" cy="0" r="3" fill="#EE4B2B"/>
            <circle cx="2.5" cy="0" r="3" fill="#DDDDDD"/>
        </g>
    </g>
    <g transform="translate(-75, 75)">
        <text text-anchor="middle">Elektron <tspan fill="#89CFFF">e⁻</tspan></text>
        <g transform="translate(0, 20)">
            <path fill="#F6F6F6" d="M -10 -18 L 10 -18 C 18 -18, 18 -18, 18 -10 L 18 10 C 18 18, 18 18, 10 18 L -10 18 C -18 18, -18, 18, -18 10 L -18 -10 C -18 -18, -18 -18, -10 -18" />
            <circle cx="0" cy="0" r="1.5" fill="#89CFFF"/>
        </g>
    </g>
    <g transform="translate(-150, 75)">
        <text text-anchor="middle"><tspan fill="#EE4B2B">Kation</tspan></text>
        <g transform="translate(0, 20)">
            <path fill="#F6F6F6" d="M -10 -18 L 10 -18 C 18 -18, 18 -18, 18 -10 L 18 10 C 18 18, 18 18, 10 18 L -10 18 C -18 18, -18, 18, -18 10 L -18 -10 C -18 -18, -18 -18, -10 -18" />
            <circle cx="0" cy="0" r="3" fill="#EE4B2B"/>
            <circle cx="0" cy="0" r="12" fill="none" stroke="#AAAAAA" stroke-width="0.75"/>
        </g>
    </g>
    <g transform="translate(-150, 150)">
        <text text-anchor="middle"><tspan fill="#89CFFF">Anion</tspan></text>
        <g transform="translate(0, 20)">
            <path fill="#F6F6F6" d="M -10 -18 L 10 -18 C 18 -18, 18 -18, 18 -10 L 18 10 C 18 18, 18 18, 10 18 L -10 18 C -18 18, -18, 18, -18 10 L -18 -10 C -18 -18, -18 -18, -10 -18" />
            <circle cx="0" cy="0" r="3" fill="#EE4B2B"/>
            <circle cx="0" cy="0" r="12" fill="none" stroke="#AAAAAA" stroke-width="0.75"/>
            <circle cx="-12" cy="0" r="1.5" fill="#89CFFF"/>
            <circle cx="12" cy="0" r="1.5" fill="#89CFFF"/>
        </g>
    </g>
    <g transform="translate(0, 150)">
        <text text-anchor="middle">Atom</text>
        <g transform="translate(0, 20)">
            <path fill="#F6F6F6" d="M -10 -18 L 10 -18 C 18 -18, 18 -18, 18 -10 L 18 10 C 18 18, 18 18, 10 18 L -10 18 C -18 18, -18, 18, -18 10 L -18 -10 C -18 -18, -18 -18, -10 -18" />
            <circle cx="0" cy="0" r="3" fill="#EE4B2B"/>
            <circle cx="0" cy="0" r="12" fill="none" stroke="#AAAAAA" stroke-width="0.75"/>
            <circle cx="12" cy="0" r="1.5" fill="#89CFFF"/>
        </g>
    </g>
    <g transform="translate(150, 150)">
        <text text-anchor="middle">Isotop</text>
        <g transform="translate(0, 20)">
            <path fill="#F6F6F6" d="M -10 -18 L 10 -18 C 18 -18, 18 -18, 18 -10 L 18 10 C 18 18, 18 18, 10 18 L -10 18 C -18 18, -18, 18, -18 10 L -18 -10 C -18 -18, -18 -18, -10 -18" />
            <circle cx="-1.5" cy="1.5" r="3" fill="#CCCCCC"/>
            <circle cx="0" cy="-1.5" r="3" fill="#EE4B2B"/>
            <circle cx="1.5" cy="1.5" r="3" fill="#DDDDDD"/>
            <circle cx="0" cy="0" r="12" fill="none" stroke="#AAAAAA" stroke-width="0.75"/>
            <circle cx="12" cy="0" r="1.5" fill="#89CFFF"/>
        </g>
    </g>
    <g transform="translate(-150, 225)">
        <text text-anchor="middle">Ionenbindung</text>
        <g transform="translate(0, 20)">
            <path fill="#F6F6F6" d="M -10 -18 L 10 -18 C 18 -18, 18 -18, 18 -10 L 18 10 C 18 18, 18 18, 10 18 L -10 18 C -18 18, -18, 18, -18 10 L -18 -10 C -18 -18, -18 -18, -10 -18" />
            <circle cx="-12" cy="-12" r="3" fill="#89CFFF"/>
            <circle cx="-6" cy="-12" r="1.5" fill="#EE4B2B"/>
            <circle cx="-0" cy="-12" r="3" fill="#89CFFF"/>
            <circle cx="6" cy="-12" r="1.5" fill="#EE4B2B"/>
            <circle cx="12" cy="-12" r="3" fill="#89CFFF"/>

            <circle cx="-12" cy="-6" r="1.5" fill="#EE4B2B"/>
            <circle cx="-6" cy="-6" r="3" fill="#89CFFF"/>
            <circle cx="-0" cy="-6" r="1.5" fill="#EE4B2B"/>
            <circle cx="6" cy="-6" r="3" fill="#89CFFF"/>
            <circle cx="12" cy="-6" r="1.5" fill="#EE4B2B"/>

            <circle cx="-12" cy="0" r="3" fill="#89CFFF"/>
            <circle cx="-6" cy="0" r="1.5" fill="#EE4B2B"/>
            <circle cx="-0" cy="0" r="3" fill="#89CFFF"/>
            <circle cx="6" cy="0" r="1.5" fill="#EE4B2B"/>
            <circle cx="12" cy="0" r="3" fill="#89CFFF"/>

            <circle cx="-12" cy="6" r="1.5" fill="#EE4B2B"/>
            <circle cx="-6" cy="6" r="3" fill="#89CFFF"/>
            <circle cx="-0" cy="6" r="1.5" fill="#EE4B2B"/>
            <circle cx="6" cy="6" r="3" fill="#89CFFF"/>
            <circle cx="12" cy="6" r="1.5" fill="#EE4B2B"/>

            <circle cx="-12" cy="12" r="3" fill="#89CFFF"/>
            <circle cx="-6" cy="12" r="1.5" fill="#EE4B2B"/>
            <circle cx="-0" cy="12" r="3" fill="#89CFFF"/>
            <circle cx="6" cy="12" r="1.5" fill="#EE4B2B"/>
            <circle cx="12" cy="12" r="3" fill="#89CFFF"/>
        </g>
    </g>
    <g transform="translate(0, 225)">
        <text text-anchor="middle">polare Atombindung</text>
        <g transform="translate(0, 20)">
            <path fill="#F6F6F6" d="M -10 -18 L 10 -18 C 18 -18, 18 -18, 18 -10 L 18 10 C 18 18, 18 18, 10 18 L -10 18 C -18 18, -18, 18, -18 10 L -18 -10 C -18 -18, -18 -18, -10 -18" />
            <circle cx="-7.5" cy="0" r="3" fill="#EE4B2B"/>
            <circle cx="7.5" cy="0" r="3" fill="#EE4B2B"/>
            <circle cx="-7.5" cy="0" r="9" fill="none" stroke="#AAAAAA" stroke-width="0.75"/>
            <circle cx="7.5" cy="0" r="9" fill="none" stroke="#AAAAAA" stroke-width="0.75"/>
            <circle cx="-1.75" cy="-2" r="1.5" fill="#89CFFF"/>
            <circle cx="-1.75" cy="2" r="1.5" fill="#89CFFF"/>
            <text x="-7.5" y="-5" text-anchor="middle" font-size="10" fill="#89CFFF">δ⁻</text>
            <text x="7.5" y="-5" text-anchor="middle" font-size="10" fill="#EE4B2B">δ⁺</text>
        </g>
    </g>
    <g transform="translate(150, 225)">
        <text text-anchor="middle">Atombindung</text>
        <g transform="translate(0, 20)">
            <path fill="#F6F6F6" d="M -10 -18 L 10 -18 C 18 -18, 18 -18, 18 -10 L 18 10 C 18 18, 18 18, 10 18 L -10 18 C -18 18, -18, 18, -18 10 L -18 -10 C -18 -18, -18 -18, -10 -18" />
            <circle cx="-7.5" cy="0" r="3" fill="#EE4B2B"/>
            <circle cx="7.5" cy="0" r="3" fill="#EE4B2B"/>
            <circle cx="-7.5" cy="0" r="9" fill="none" stroke="#AAAAAA" stroke-width="0.75"/>
            <circle cx="7.5" cy="0" r="9" fill="none" stroke="#AAAAAA" stroke-width="0.75"/>
            <circle cx="0" cy="-4" r="1.5" fill="#89CFFF"/>
            <circle cx="0" cy="4" r="1.5" fill="#89CFFF"/>
        </g>
    </g>
    <g transform="translate(300, 225)">
        <text text-anchor="middle">Metallbindung</text>
        <g transform="translate(0, 20)">
            <path fill="#F6F6F6" d="M -10 -18 L 10 -18 C 18 -18, 18 -18, 18 -10 L 18 10 C 18 18, 18 18, 10 18 L -10 18 C -18 18, -18, 18, -18 10 L -18 -10 C -18 -18, -18 -18, -10 -18" />
            <circle cx="-12" cy="-12" r="2" fill="#EE4B2B"/>
            <circle cx="-6" cy="-12" r="2" fill="#EE4B2B"/>
            <circle cx="-0" cy="-12" r="2" fill="#EE4B2B"/>
            <circle cx="6" cy="-12" r="2" fill="#EE4B2B"/>
            <circle cx="12" cy="-12" r="2" fill="#EE4B2B"/>

            <circle cx="-12" cy="-6" r="2" fill="#EE4B2B"/>
            <circle cx="-6" cy="-6" r="2" fill="#EE4B2B"/>
            <circle cx="-0" cy="-6" r="2" fill="#EE4B2B"/>
            <circle cx="6" cy="-6" r="2" fill="#EE4B2B"/>
            <circle cx="12" cy="-6" r="2" fill="#EE4B2B"/>

            <circle cx="-12" cy="0" r="2" fill="#EE4B2B"/>
            <circle cx="-6" cy="0" r="2" fill="#EE4B2B"/>
            <circle cx="-0" cy="0" r="2" fill="#EE4B2B"/>
            <circle cx="6" cy="0" r="2" fill="#EE4B2B"/>
            <circle cx="12" cy="0" r="2" fill="#EE4B2B"/>

            <circle cx="-12" cy="6" r="2" fill="#EE4B2B"/>
            <circle cx="-6" cy="6" r="2" fill="#EE4B2B"/>
            <circle cx="-0" cy="6" r="2" fill="#EE4B2B"/>
            <circle cx="6" cy="6" r="2" fill="#EE4B2B"/>
            <circle cx="12" cy="6" r="2" fill="#EE4B2B"/>

            <circle cx="-12" cy="12" r="2" fill="#EE4B2B"/>
            <circle cx="-6" cy="12" r="2" fill="#EE4B2B"/>
            <circle cx="-0" cy="12" r="2" fill="#EE4B2B"/>
            <circle cx="6" cy="12" r="2" fill="#EE4B2B"/>
            <circle cx="12" cy="12" r="2" fill="#EE4B2B"/>
        </g>
    </g>
    

    <g transform="translate(0, -5)">
        <path fill="none" stroke="#000000" d="M 50 25 L 70 25 L 75 35 L 80 25 L 100 25" />
        
        <path fill="none" stroke="#000000" d="M -25 100 L -5 100 L 0 110 L 5 100 L 25 100" />
        
        <path fill="none" stroke="#000000" d="M -125 75 L -120 75 L -120 150" stroke-dasharray="3 2"/>
        <path fill="none" stroke="#000000" d="M -125 150 L -25 150"  stroke-dasharray="3 2"/>
        <path fill="none" stroke="#000000" d="M 25 150 L 125 150"  stroke-dasharray="3 2"/>
        
        <path fill="none" stroke="#000000" d="M -150 200 L -150 215" />
        <path fill="none" stroke="#000000" d="M 0 200 L 0 215" />
        <path fill="none" stroke="#000000" d="M 0 207.5 L 150 207.5 L 150 215" />
        <path fill="none" stroke="#000000" d="M 150 207.5 L 300 207.5 L 300 215" />

        <text text-anchor="middle" font-size="9" transform="translate(-145, 207.5) rotate(90)">Salz</text>
        <text x="75" y="245" text-anchor="middle" font-size="9">Molekül</text>
        <path fill="none" stroke="#000000" d="M 25 250 L 125 250"  stroke-dasharray="3 2"/>
    </g>
</svg>
